<svg xmlns="http://www.w3.org/2000/svg" width="116.983" height="103" viewBox="0 0 116.983 103">
  <g id="Layer_2" data-name="Layer 2" transform="translate(-127.945 -141)">
    <g id="Group_18" data-name="Group 18" transform="translate(127.945 141)">
      <g id="Group_1" data-name="Group 1" transform="translate(4.028 58.502)">
        <path id="Path_1" data-name="Path 1" d="M146.6,358.821l-.026,4.994-1.634.17.024-3.139-2.455.256-.824,3.222-1.62.169,1.287-5.1,2.661-9.649,2.427-.252Zm-1.627.366.059-8.105-2.1,8.318Z" transform="translate(-140.07 -338.733)" fill="#58595b"/>
        <path id="Path_2" data-name="Path 2" d="M168.289,366.94a2.555,2.555,0,0,1-2.417,2.5q-1.737.181-1.843-1.326a3.607,3.607,0,0,1,.032-.733l1.145-8.725,1.472-.153-1.145,8.724a1.3,1.3,0,0,0-.009.246q.034.475.554.421a.8.8,0,0,0,.74-.8l1.145-8.724,1.472-.153Z" transform="translate(-156.065 -344.557)" fill="#58595b"/>
        <path id="Path_3" data-name="Path 3" d="M184.946,350.072l1.139-.118-.2,1.539-1.139.119-1.221,9.288-1.472.153,1.221-9.288-1.056.11.2-1.539,1.056-.11.46-3.51,1.472-.153Z" transform="translate(-168.105 -336.776)" fill="#58595b"/>
        <path id="Path_4" data-name="Path 4" d="M197.731,363.934a2.555,2.555,0,0,1-2.418,2.5q-1.738.181-1.844-1.326a3.658,3.658,0,0,1,.032-.733l.87-6.622a2.544,2.544,0,0,1,2.412-2.494q1.743-.182,1.849,1.326a3.55,3.55,0,0,1-.033.728Zm-.6-6.468a1.207,1.207,0,0,0,.009-.241q-.033-.475-.554-.426h-.01a.794.794,0,0,0-.729.8l-.869,6.622a1.3,1.3,0,0,0-.009.246q.033.475.553.421a.8.8,0,0,0,.74-.8Z" transform="translate(-175.726 -342.569)" fill="#58595b"/>
        <path id="Path_5" data-name="Path 5" d="M214.98,364.223l-2.018.21-.119-6.889.022-3.78,1.488-.155-.059,8.236,2.134-8.452,1.487-.155-.983,3.89Z" transform="translate(-188.667 -341.233)" fill="#58595b"/>
        <path id="Path_6" data-name="Path 6" d="M229.542,358.117l-.335,2.538a1.332,1.332,0,0,0-.009.246q.034.475.554.421a.8.8,0,0,0,.74-.8l.191-1.456,1.472-.154-.191,1.457a2.556,2.556,0,0,1-2.417,2.5q-1.738.18-1.844-1.326a3.638,3.638,0,0,1,.032-.733l.87-6.622a2.545,2.545,0,0,1,2.413-2.494q1.742-.181,1.848,1.326a3.529,3.529,0,0,1-.033.728l-.535,4.084Zm.2-1.545,1.285-.134.335-2.538a1.232,1.232,0,0,0,.009-.241q-.033-.475-.554-.427h-.01a.8.8,0,0,0-.73.8Z" transform="translate(-198.586 -340.188)" fill="#58595b"/>
        <path id="Path_7" data-name="Path 7" d="M245.1,352.454a2.545,2.545,0,0,1,2.413-2.494l.021,0-.206,1.54-.026,0a.8.8,0,0,0-.73.8l-1.146,8.724-1.472.153Z" transform="translate(-209.445 -339.043)" fill="#58595b"/>
        <path id="Path_8" data-name="Path 8" d="M255.305,351.406a2.544,2.544,0,0,1,2.412-2.494q1.743-.181,1.849,1.326a3.549,3.549,0,0,1-.033.728l-.191,1.457-1.472.153.191-1.457a1.236,1.236,0,0,0,.009-.241q-.033-.475-.554-.427h-.01a.8.8,0,0,0-.729.8l-.13.982a.787.787,0,0,0,0,.164q.046.659,1.151,1.464a2.368,2.368,0,0,1,1.07,1.8,2.839,2.839,0,0,1-.018.557l-.181,1.368a2.547,2.547,0,0,1-2.412,2.5q-1.743.175-1.849-1.332a3.55,3.55,0,0,1,.033-.727l.191-1.457,1.472-.153-.191,1.456a1.258,1.258,0,0,0-.009.246q.033.475.559.421a.8.8,0,0,0,.735-.8l.164-1.237a.884.884,0,0,0,.008-.186q-.05-.7-1.148-1.5a2.366,2.366,0,0,1-1.065-1.8,2.9,2.9,0,0,1,.021-.59Z" transform="translate(-216.416 -338.332)" fill="#58595b"/>
        <path id="Path_9" data-name="Path 9" d="M275.641,355.82a2.555,2.555,0,0,1-2.418,2.5q-1.737.181-1.844-1.326a3.635,3.635,0,0,1,.033-.733l.869-6.622a2.545,2.545,0,0,1,2.412-2.494q1.743-.181,1.849,1.326a3.571,3.571,0,0,1-.032.727l-.191,1.457-1.472.153.191-1.457a1.24,1.24,0,0,0,.009-.241q-.033-.475-.553-.426h-.011a.8.8,0,0,0-.73.8l-.869,6.622a1.3,1.3,0,0,0-.009.246q.034.476.554.421a.8.8,0,0,0,.74-.8l.191-1.457,1.472-.153Z" transform="translate(-227.753 -337.151)" fill="#58595b"/>
        <path id="Path_10" data-name="Path 10" d="M289.107,349.9l-1.472.153,1.882-14.337,1.472-.153-.484,3.686a2.2,2.2,0,0,1,1.188-.467q1.259-.125,1.354,1.23a4.5,4.5,0,0,1-.037.881l-1.146,8.719-1.472.153,1.146-8.719a1.268,1.268,0,0,0,.009-.246q-.033-.476-.559-.42a.8.8,0,0,0-.735.795Z" transform="translate(-238.613 -329.432)" fill="#58595b"/>
        <path id="Path_11" data-name="Path 11" d="M305.755,346.138a2.545,2.545,0,0,1,2.413-2.494l.021,0-.206,1.54-.026,0a.794.794,0,0,0-.73.8l-1.146,8.724-1.472.153Z" transform="translate(-249.948 -334.825)" fill="#58595b"/>
        <path id="Path_12" data-name="Path 12" d="M318.583,351.348a2.556,2.556,0,0,1-2.418,2.5q-1.737.18-1.843-1.327a3.619,3.619,0,0,1,.032-.733l.869-6.622a2.544,2.544,0,0,1,2.413-2.493q1.742-.181,1.848,1.326a3.509,3.509,0,0,1-.033.728Zm-.6-6.468a1.184,1.184,0,0,0,.009-.241q-.033-.475-.553-.427h-.011a.8.8,0,0,0-.729.8l-.869,6.622a1.272,1.272,0,0,0-.009.246q.034.475.554.421a.8.8,0,0,0,.74-.8Z" transform="translate(-256.429 -334.165)" fill="#58595b"/>
        <path id="Path_13" data-name="Path 13" d="M335.238,334.421l1.14-.119-.2,1.539-1.139.119-1.221,9.288-1.472.153,1.221-9.288-1.055.11.2-1.54,1.056-.11.46-3.509,1.472-.154Z" transform="translate(-268.469 -326.323)" fill="#58595b"/>
        <path id="Path_14" data-name="Path 14" d="M347.7,333.122l1.14-.118-.2,1.539-1.139.119-1.221,9.288-1.472.153,1.221-9.288-1.056.11.2-1.539,1.056-.11.46-3.51,1.472-.153Z" transform="translate(-276.794 -325.456)" fill="#58595b"/>
        <path id="Path_15" data-name="Path 15" d="M360.49,346.923a2.555,2.555,0,0,1-2.418,2.5q-1.737.181-1.844-1.326a3.63,3.63,0,0,1,.033-.733l1.145-8.724,1.472-.154-1.146,8.725a1.339,1.339,0,0,0-.009.246q.034.475.554.421a.8.8,0,0,0,.74-.8l1.145-8.724,1.472-.153Z" transform="translate(-284.415 -331.19)" fill="#58595b"/>
        <path id="Path_16" data-name="Path 16" d="M373.956,347.6l-1.472.154,1.146-8.724a2.544,2.544,0,0,1,2.412-2.494q1.743-.181,1.849,1.326a3.551,3.551,0,0,1-.033.727l-1.145,8.725-1.472.153,1.146-8.724a1.211,1.211,0,0,0,.009-.241q-.033-.475-.554-.427h-.011a.794.794,0,0,0-.73.8Z" transform="translate(-295.274 -330.069)" fill="#58595b"/>
        <path id="Path_17" data-name="Path 17" d="M393.113,346.814a2.54,2.54,0,0,1-2.407,2.5q-1.743.176-1.85-1.337a3.787,3.787,0,0,1,.028-.722l.051-.391,1.472-.153-.051.391a1.259,1.259,0,0,0-.009.246q.033.475.559.42a.8.8,0,0,0,.734-.8l.175-1.313a1.292,1.292,0,0,1-.676.293q-1.738.181-1.844-1.327a3.658,3.658,0,0,1,.032-.733l.87-6.622a2.544,2.544,0,0,1,2.412-2.494q1.743-.182,1.849,1.326a3.576,3.576,0,0,1-.032.728Zm-1.027-3.2.869-6.633a1.207,1.207,0,0,0,.009-.241q-.033-.476-.554-.426h-.01a.8.8,0,0,0-.73.8l-.87,6.622a1.312,1.312,0,0,0-.009.246q.034.475.554.421A.8.8,0,0,0,392.086,343.612Z" transform="translate(-306.203 -328.889)" fill="#58595b"/>
        <path id="Path_18" data-name="Path 18" d="M420.825,330.261l-.026,4.994-1.634.17.024-3.139-2.455.256-.823,3.222-1.62.168,1.287-5.1,2.661-9.649,2.427-.253Zm-1.627.366.059-8.105-2.1,8.318Z" transform="translate(-323.192 -319.661)" fill="#58595b"/>
        <path id="Path_19" data-name="Path 19" d="M442.873,334.2l.095-.739,1.472-.153-.095.739.936-.1-.2,1.539-.937.1-.335,2.538a2.556,2.556,0,0,1-2.433,2.5q-1.722.179-1.828-1.323a3.647,3.647,0,0,1,.033-.733l.234-1.8a2.076,2.076,0,0,1,1-1.591,1.083,1.083,0,0,1-.624-.974,2.36,2.36,0,0,1,.015-.448l.215-1.628a2.545,2.545,0,0,1,2.407-2.5q1.748-.181,1.854,1.326a3.606,3.606,0,0,1-.032.733l-.061.464-1.472.154.062-.464a1.051,1.051,0,0,0,.011-.219q-.032-.448-.541-.46a.873.873,0,0,0-.755.813l-.215,1.628a1.146,1.146,0,0,0-.006.207.455.455,0,0,0,.319.441.9.9,0,0,0,.331.014Zm-1.29,4.886a.816.816,0,0,0,.755-.809l.334-2.538-.546.057a1.112,1.112,0,0,0-.345.085.879.879,0,0,0-.494.727l-.234,1.8a1.281,1.281,0,0,0-.013.263q.033.464.517.414Z" transform="translate(-340.055 -325.45)" fill="#58595b"/>
        <path id="Path_20" data-name="Path 20" d="M459.708,331.8l1.91-14.533,1.606-.167-1.692,12.859,3.247-.338-.218,1.674Z" transform="translate(-353.522 -317.101)" fill="#58595b"/>
      </g>
      <g id="Group_17" data-name="Group 17" transform="translate(0 0)">
        <g id="Group_12" data-name="Group 12">
          <g id="Group_2" data-name="Group 2" transform="translate(5.614)">
            <path id="Path_21" data-name="Path 21" d="M247.785,194.927A51.5,51.5,0,1,0,146.9,206.9l1.508-.149a50.011,50.011,0,1,1,97.891-11.9c-.036.749-.093,1.491-.161,2.23l1.508-.149C247.7,196.271,247.753,195.6,247.785,194.927Z" transform="translate(-144.843 -141)" fill="#82a53c"/>
            <path id="Path_22" data-name="Path 22" d="M224.49,403.095a49.789,49.789,0,0,1-32.036-13.687l-1.933.2a51.434,51.434,0,0,0,79.257-8.051l-1.939.2A50.012,50.012,0,0,1,224.49,403.095Z" transform="translate(-175.346 -301.639)" fill="#82a53c"/>
            <path id="Path_23" data-name="Path 23" d="M276.9,388.569l-68.559,7.238c6.552,6.082,22.161,12.1,35.435,10.494A53.041,53.041,0,0,0,276.9,388.569Z" transform="translate(-187.249 -306.325)" fill="#82a53c"/>
          </g>
          <path id="Path_24" data-name="Path 24" d="M138.824,387.269l1.265-.21,3.576-.584,5.561-.866,3.422-.522c.6-.087,1.224-.157,1.861-.205s1.287-.125,1.951-.194l38.971-4.051,38.971-4.05c.664-.07,1.315-.133,1.949-.212s1.256-.142,1.864-.172l3.456-.193,5.621-.3,4.9-.227-4.842.786-5.562.864-3.422.521c-.6.1-1.223.164-1.86.215s-1.287.126-1.951.194l-38.971,4.051-38.971,4.05c-.664.069-1.315.135-1.95.211s-1.255.144-1.863.182l-3.456.193-5.621.3-3.62.164Z" transform="translate(-135.21 -297.588)" fill="#82a53c"/>
          <path id="Path_25" data-name="Path 25" d="M127.945,317.83s7.286-1.616,9.483-1.948c1.1-.162,3.431-.037,4.664-.219q.925-.13,1.9-.2c.651-.055,1.316-.123,2-.192l39.867-4.008,39.868-4.008c.679-.069,1.345-.132,1.994-.209s1.285-.14,1.907-.17c1.245-.067,4.221-.94,5.331-1,2.219-.113,8.964.3,8.964.3l-4.955.781-5.691.858-3.5.518c-.616.095-1.251.162-1.9.213s-1.317.124-2,.192l-39.868,4.008-39.867,4.008c-.68.068-1.345.134-1.995.209s-1.284.142-1.906.18l-3.535.19-5.748.289-3.7.16Z" transform="translate(-127.945 -251.087)" fill="#82a53c"/>
          <g id="Group_8" data-name="Group 8" transform="translate(8.654 2.781)">
            <path id="Path_26" data-name="Path 26" d="M310.846,153.36l33.6,32.5,3.592.169-37.509-36.653A3,3,0,0,0,310.846,153.36Z" transform="translate(-258.109 -149.372)" fill="#82a53c"/>
            <g id="Group_5" data-name="Group 5" transform="translate(48.808 1.45)">
              <g id="Group_3" data-name="Group 3" transform="translate(2.975 0)">
                <rect id="Rectangle_2" data-name="Rectangle 2" width="6.824" height="0.455" transform="translate(0 6.817) rotate(-87.299)" fill="#82a53c"/>
              </g>
              <g id="Group_4" data-name="Group 4" transform="translate(4.693 0.763)">
                <rect id="Rectangle_3" data-name="Rectangle 3" width="6.142" height="0.455" transform="translate(0 6.135) rotate(-87.299)" fill="#82a53c"/>
              </g>
              <circle id="Ellipse_1" data-name="Ellipse 1" cx="1.223" cy="1.223" r="1.223" transform="translate(2.872 5.177)" fill="#82a53c"/>
              <path id="Path_27" data-name="Path 27" d="M308.415,180.328a.529.529,0,0,0-.358-.2.512.512,0,0,0-.389.111l-.04.032a4.361,4.361,0,0,1-.665.44,2.925,2.925,0,0,1-.651.249,2.346,2.346,0,0,1-.571.08,2.134,2.134,0,0,1-.275-.021l-.339-.026a1.187,1.187,0,0,1-.279-.088c-.051-.021-.1-.041-.162-.062a1.627,1.627,0,0,1-.34-.186c-.121-.093-.231-.194-.339-.292l-.075-.083a2.277,2.277,0,0,1-.185-.23l-.03-.052a1.877,1.877,0,0,1-.145-.282l-.023-.058a.612.612,0,0,0-.033-.089c0-.015,0-.03-.007-.046l-.029-.195c0-.08-.011-.16-.024-.242l0-.182.01-.127a1.269,1.269,0,0,1,.037-.276l.016-.067a1.848,1.848,0,0,1,.461-.819,5.292,5.292,0,0,1,.48-.448l.036-.031c.134-.112.287-.217.438-.32.072-.049.143-.1.214-.149l.426-.308.059-.783.028-.366.031-.414-.027-.084a.687.687,0,0,0-.766-.471.564.564,0,0,0-.553.488l-.042.681a5.119,5.119,0,0,0-1.455.559,4.281,4.281,0,0,0-.833.631,3.55,3.55,0,0,0-.639.845,3.66,3.66,0,0,0-.375,1.037l-.024.147c-.019.114-.038.227-.051.379l-.006.456a2.172,2.172,0,0,0,.025.4c.006.04.011.081.015.124l.035.179a2.387,2.387,0,0,0,.1.378,3.44,3.44,0,0,0,.486.971,4.061,4.061,0,0,0,3.091,1.724,3.621,3.621,0,0,0,.566-.018,4.032,4.032,0,0,0,1.035-.227,3.6,3.6,0,0,0,.934-.494,3.876,3.876,0,0,0,1.286-1.635A.532.532,0,0,0,308.415,180.328Z" transform="translate(-300.914 -167.426)" fill="#82a53c"/>
            </g>
            <g id="Group_7" data-name="Group 7" transform="translate(0 17.769)">
              <path id="Path_28" data-name="Path 28" d="M170.7,319.018l44.772-4.686s-.051,1.675-.6,1.929l-43.534,4.091A1.44,1.44,0,0,1,170.7,319.018Z" transform="translate(-165.152 -277.3)" fill="#82a53c"/>
              <path id="Path_29" data-name="Path 29" d="M318.535,294.519a4.736,4.736,0,0,0,1.138,2.335,4.661,4.661,0,0,0,.943-2.531Z" transform="translate(-263.874 -263.937)" fill="#82a53c"/>
              <path id="Path_30" data-name="Path 30" d="M412.318,292.76a2.195,2.195,0,0,0,.573,1.312,2.986,2.986,0,0,0,.62-1.625Z" transform="translate(-326.501 -262.686)" fill="#82a53c"/>
              <g id="Group_6" data-name="Group 6">
                <path id="Path_31" data-name="Path 31" d="M342.747,224.262s.1,1.053.123,1.992c.016.827.171,1.653,1.151,1.916l4.566.588-.643-3.476Z" transform="translate(-280.042 -217.152)" fill="#82a53c"/>
                <path id="Path_32" data-name="Path 32" d="M293.629,221.391l10.314-1.53-.2,4.273-12.095.919S291.564,221.759,293.629,221.391Z" transform="translate(-245.918 -214.213)" fill="#82a53c"/>
                <path id="Path_33" data-name="Path 33" d="M256.312,232.392s.035-2.046,1.73-2.463l5.662-1.6-.527,3.265Z" transform="translate(-222.322 -219.871)" fill="#82a53c"/>
                <path id="Path_34" data-name="Path 34" d="M252.646,237.066l-8.493.827.6-1.94,1.239-.208a1.776,1.776,0,0,0,1.568-1.664l-.313-3.293-2.4.186a8.625,8.625,0,0,0-3.482-6.061,2.292,2.292,0,0,0,2.517-2.426l.035-.743-16.35-.771a15.226,15.226,0,0,0-1.76-4.8,20.564,20.564,0,0,1-.892-2.152l-1.808-6.417c-.527-1.663-.734-2.136-1.983-2.7-2.3-1.04-4.86-2.194-7.909-2.027-17.157.937-22.216,3.72-24.105,4.365-2.4.818-3.655,3.8-3.655,3.8l-1.484,5.144-2.618.653c-.873.4-4.411,2.614-3.354,11.387l-.581.063c-.8-6.656.939-9.706,2.369-11.06l-.841.21c-7.68,2.287-7.6,8.456-7.6,8.456-8.959.446-10.982,1.22-10.982,1.22-4.623,3.258-.7,6.919-.7,6.919l.8,6.732-2.495.254c-1.844,2.262-.257,5.46-.257,5.46l-3.692.8-.031,1.2,98.352-9.8Zm-20.1-7.479c.219-2,1.362-4.923,5.184-4.628-.272-.006-4.284.029-4.1,7.532l-6.24.2-.141-3.106Zm-6.295-7.031.631,10.277-5.218.126c-1.078-8.734-3.854-9.093-5.556-10.523,1.07-1.953.27-5.715.27-5.715l8.18.944A7.868,7.868,0,0,1,226.256,222.556Zm-5.892-15.889a3.028,3.028,0,0,1,1.753,2.317l1.569,6.219-6.355-.8s-1.469-.442-1.358-2.8l-.02-6.147Zm-21.838-.223,12.657-1.2a1.929,1.929,0,0,1,2.062,2.332l-.232,4.924c.013,1.366-2.428,1.468-2.428,1.468l-13.521,1.1ZM186.074,212.5a5.789,5.789,0,0,1,3.072-3.269c3.4-1.243,7.811-2.425,7.811-2.425l-1.321,8.255-10.478,1.058Zm1.02,5.355c1.608-.661,22.1-1.5,23.773-1.578,1.446-.071,4.74.224,4.74.224l.066,1.058s.261,2.355-.738,3.193a2.869,2.869,0,0,1-2.083.405s-17.8-2.957-18.361,3.682L183.083,225.9S182.756,219.636,187.094,217.852Zm11.814,5.626c.992-.1,1.9.894,2.031,2.215a2.169,2.169,0,0,1-1.561,2.568c-.992.1-1.9-.894-2.031-2.215A2.169,2.169,0,0,1,198.908,223.478Zm-.178-1.632.276-.038.318-.044.2-.027.22,0,.5,0,.557.075c.191.04.384.109.586.166a4.727,4.727,0,0,1,.566.292,2.931,2.931,0,0,1,.5.4,3.37,3.37,0,0,1,.411.477,4.112,4.112,0,0,1,.3.508,3.7,3.7,0,0,1,.2.487,4.473,4.473,0,0,1,.2.767c.016.093.026.174.031.232l.007.078-.744.014,0-.068c0-.038,0-.1,0-.178a3.792,3.792,0,0,0-.092-.67,3.131,3.131,0,0,0-.126-.436,3.614,3.614,0,0,0-.2-.464,2.939,2.939,0,0,0-.3-.447,2.541,2.541,0,0,0-.4-.4,4.47,4.47,0,0,0-.474-.318c-.176-.071-.346-.156-.52-.215l-.519-.131-.481-.053-.216-.022-.2,0-.319.007Zm4.459,5.486s-1.342,3.437.253,9.322l-4.455.6-1.315-6.8A4.718,4.718,0,0,0,203.188,227.333Zm-35.661,9.894,28.133-2.956-.316,1.428-27.174,2.776Zm.317-2.824-.751-1.138,27.874-2.72-.387,1.44Zm10.473-16.031s-2.935,2.964-2.453,8.573l-3.287.528S172.587,220.428,178.317,218.371Zm-11.7,11.085,28.043-3.008-.486,1.339-26.62,2.865Zm-4.126-1.539a3.129,3.129,0,0,1,1.169.8,2.687,2.687,0,0,1,.249.312,3.363,3.363,0,0,1,.2.335c.062.112.1.229.147.337a2.254,2.254,0,0,1,.1.315,2.1,2.1,0,0,1,.064.272l.032.213.027.187-.744,0,.006-.154c0-.049.005-.11.008-.179a1.566,1.566,0,0,0-.011-.23,1.7,1.7,0,0,0-.031-.272c-.023-.093-.034-.2-.068-.3a2.822,2.822,0,0,0-.114-.31,2.272,2.272,0,0,0-.161-.3,2.886,2.886,0,0,0-.926-.921,2.637,2.637,0,0,0-.551-.278A2.672,2.672,0,0,1,162.5,227.916Zm1.56,12.312-1.9.1-.587-5.645s1.522-.065,2.159-2.365Zm-4.623-9.13a1.763,1.763,0,0,1,1.269-2.087c.806-.079,1.545.726,1.651,1.8a1.763,1.763,0,0,1-1.268,2.087C160.278,232.978,159.539,232.172,159.433,231.1Zm45.461,10.079s-.435,1.329-.811,1.4l-44.562,4.183s-1.872-2.742-.219-4.247l43.991-4.908S205.537,238.135,204.894,241.177Zm-.2-19.877a27.917,27.917,0,0,1,11.713,3.552c-4.607-2.328-10.593-1.555-10.593-1.555Zm5.2,15.659c-3.628-4.268-.656-7.542-.656-7.542a3.561,3.561,0,0,1,2.522,3.517C211.913,236.062,209.891,236.959,209.891,236.959Zm2.04,3.727c3.2-3.086,2.409-7.63,2.409-7.63,1.4,4.458-1.716,8.749-1.716,8.749Zm2.3,1.195a5.166,5.166,0,0,0,2.467-3.7l17.834-1.163c.882,2.812,2.588,2.918,2.588,2.918ZM240.56,235.1c-2.21-2.6-.4-4.592-.4-4.592a2.169,2.169,0,0,1,1.536,2.142A2.391,2.391,0,0,1,240.56,235.1Zm1.337,3.075-.433-.7a5.764,5.764,0,0,0,1.505-4.769C243.847,235.5,241.9,238.179,241.9,238.179Z" transform="translate(-153.996 -202.859)" fill="#82a53c"/>
              </g>
            </g>
          </g>
          <g id="Group_10" data-name="Group 10" transform="translate(12.724 4.33)">
            <g id="Group_9" data-name="Group 9">
              <path id="Path_35" data-name="Path 35" d="M208.441,154.508a2.928,2.928,0,0,0-1.934-.416,2.53,2.53,0,0,0-.259-.033,3.064,3.064,0,0,0-.448-.024,3.792,3.792,0,0,0-.481.024,4.228,4.228,0,0,0-1.013.239,5.4,5.4,0,0,0-1,.486,7.533,7.533,0,0,0-.923.683c-.3.246-.561.531-.826.769a4.3,4.3,0,0,1-.932.617,6.911,6.911,0,0,1-1.749.491l.244-.24a2.883,2.883,0,0,1,.836-.569c.2-.09.413-.157.612-.253a4.584,4.584,0,0,0,1.679-1.788,3.5,3.5,0,0,0-2.577,1.278,3.8,3.8,0,0,0-.97,1.6c-.346.041-.943.077-1.23.073l-.02,0c-1.823.032-3.2,1.117-4.489,2.313a4.73,4.73,0,0,0,1.285-2.852,3.643,3.643,0,0,0-2.2,2.18c-.23.642-.311,1.408-.554,2.034l-.01.014,0,.006c-.095.084-.189.168-.284.249a5.575,5.575,0,0,1-5.221,1.418,7.581,7.581,0,0,0-3.211.039,4.959,4.959,0,0,1,2.213-.8,9.941,9.941,0,0,0,3.02-1.523,7.717,7.717,0,0,1,2.8-1.446,7.78,7.78,0,0,0-6.735,1.4,10.992,10.992,0,0,0-1.941,2.566c-.059.021-.118.037-.176.06-2.8,1.066-4.133,3.308-4.714,6.1a5.889,5.889,0,0,1-1.9,3.275,4.983,4.983,0,0,0,.982-2.476,2.5,2.5,0,0,0-.7-1.752c-.342-.353-.8-.624-.985-1.082a4.344,4.344,0,0,0,.32,2.761,3.739,3.739,0,0,1,.169,2.739c-.56.489-1.193.941-1.869,1.426a19.014,19.014,0,0,0-3,2.559,3.459,3.459,0,0,1,.6-1.417c.233-.322.52-.6.742-.931a2.989,2.989,0,0,0,.05-3.191,4.025,4.025,0,0,0-1.255,2.191,13.945,13.945,0,0,0-.273,2.551,4,4,0,0,1-.172,1.126c0,.014-.012.028-.017.042q-.2.244-.393.5a6.669,6.669,0,0,0-1.349,3.332c-.148,1.689.593,3.251.767,4.9a4.544,4.544,0,0,1-.126,1.657,16.354,16.354,0,0,0-1.361-5.27,7.934,7.934,0,0,1-1.224-2.53,12.722,12.722,0,0,0,.527,3.809,3.783,3.783,0,0,0,.357.879,7.468,7.468,0,0,0,.588.763,10.018,10.018,0,0,1,1.056,2.552,5.734,5.734,0,0,1-.613,1.308l.176.323a4.892,4.892,0,0,0,.624-1.346,2.609,2.609,0,0,0,.781-.83,19.055,19.055,0,0,0,.915-1.736,9.564,9.564,0,0,0,.713-5.192,8.19,8.19,0,0,0-1.614,3.809,13.959,13.959,0,0,1-.671,3.4v0c.294-1.841-.54-3.623-.645-5.688a5.783,5.783,0,0,1,.892-3.4l.228-.184c.188-.039.793-.239.978-.271a9.693,9.693,0,0,1,2.068-.025,2.843,2.843,0,0,0,2.33-1.38,6.78,6.78,0,0,0-5.055,1.269,3.168,3.168,0,0,0-.434.41c1.309-2,3.638-3.457,5.5-4.853a9.583,9.583,0,0,0,.947-.807c.274-.089.558-.153.836-.231a6.467,6.467,0,0,0,4.4-4.461,7,7,0,0,0-1.8,1.285l-2.294,2.04-.2.181a4.816,4.816,0,0,0,.486-1.127c.445-1.565.6-3.03,1.529-4.337l.285-.175a2.592,2.592,0,0,1,1.428-.188c.689.178,1.3.575,1.985.781a6.777,6.777,0,0,0,1.927.216,4.506,4.506,0,0,0,3.294-.929c-.216-.173-.529-.085-.8-.034-1.3.245-2.54-.557-3.831-.839a6.138,6.138,0,0,0-4.143,1h0a.114.114,0,0,0-.032.014c.085-.111.174-.222.272-.331a7.056,7.056,0,0,1,5.806-2.347c1.473.151,2.745.653,4.189.068a7.448,7.448,0,0,0,1.987-1.265,12.582,12.582,0,0,0,3.059.425,4.339,4.339,0,0,0,2.723-.946,4.432,4.432,0,0,0-5.447.47l-.269,0c1.958-1.676,3.58-4,6.318-3.992h.009a4.9,4.9,0,0,0,2.5,1.258,4.013,4.013,0,0,0,.984-.057,8.607,8.607,0,0,0,1.84-.512,21.294,21.294,0,0,0-4.531-.576,1.49,1.49,0,0,1-.643-.1l-.02,0a11.1,11.1,0,0,0,1.163-.091,6.256,6.256,0,0,0,1.912-.507,3.723,3.723,0,0,0,.945-.634c.278-.272.518-.558.795-.8a7.294,7.294,0,0,1,.869-.688,5.173,5.173,0,0,1,.947-.5,4.883,4.883,0,0,1,.485-.165c.163-.034.322-.079.48-.1a3.707,3.707,0,0,1,.463-.044,2.877,2.877,0,0,1,.348,0,6.075,6.075,0,0,0,1.291.868,2.522,2.522,0,0,0,1.662.212A3.367,3.367,0,0,0,208.441,154.508ZM191.9,160.751a7.649,7.649,0,0,1,.661-.621Q192.234,160.443,191.9,160.751Z" transform="translate(-166.245 -154.034)" fill="#d3d1d3"/>
            </g>
          </g>
          <g id="Group_11" data-name="Group 11" transform="translate(76.423 8.161)">
            <path id="Path_36" data-name="Path 36" d="M423.679,295.833a.372.372,0,0,0,.146-.323Z" transform="translate(-401.857 -252.341)" fill="#d3d1d3"/>
            <path id="Path_37" data-name="Path 37" d="M378.842,182.9a2.082,2.082,0,0,0-.983,1.223,4.147,4.147,0,0,0,.174,2.208,4.9,4.9,0,0,1-.705-3.068,6.307,6.307,0,0,0-2.254-6c-.041-.033-.084-.06-.126-.091a9.145,9.145,0,0,0-.915-2.515,6.471,6.471,0,0,0-5.011-2.76,6.423,6.423,0,0,1,1.874,1.836,8.263,8.263,0,0,0,2.028,1.95,4.126,4.126,0,0,1,1.562,1.182,6.309,6.309,0,0,0-2.543-.818,4.637,4.637,0,0,1-3.8-2.406c-.056-.088-.111-.177-.165-.267v-.006c0-.014-.009-.027-.014-.041,0,.01,0,.02,0,.029-.206-.341-.4-.7-.606-1.052a4.214,4.214,0,0,1,.6,1.023c-.044-.561.092-1.152.067-1.725a3.029,3.029,0,0,0-1.215-2.272,3.937,3.937,0,0,0,.323,2.582,6.851,6.851,0,0,0-2.275-2.663,3.078,3.078,0,0,0-.767-1.562,2.64,2.64,0,0,0-.538-.371,5.7,5.7,0,0,0-1.17-.483,14.1,14.1,0,0,0,2.133,2.149,1.578,1.578,0,0,1,.211.195,3.648,3.648,0,0,0-.718-.291.1.1,0,0,0-.019,0,4.435,4.435,0,0,0-.589-.131,2.3,2.3,0,0,0-.7-.016c-.236.038-.458.1-.684.122a4.513,4.513,0,0,1-.681.039,3.19,3.19,0,0,1-.653-.085,2.947,2.947,0,0,1-.3-.089c-.094-.041-.19-.074-.277-.121a2.3,2.3,0,0,1-.248-.142c-.04-.025-.073-.053-.11-.079a6.377,6.377,0,0,0-.51-1.564A2.647,2.647,0,0,0,358,165.566a3.538,3.538,0,0,0,.066,1.045,3.278,3.278,0,0,0,1.475,1.694c.019.017.034.035.054.051a1.913,1.913,0,0,0,.166.131l.019.032,0-.021c.013.009.024.02.037.029a2.335,2.335,0,0,0,.25.158,2.6,2.6,0,0,0,.594.239,3.321,3.321,0,0,0,.676.111,4.618,4.618,0,0,0,.707-.017c.238-.018.47-.068.688-.094a2.647,2.647,0,0,1,.687.02,3.06,3.06,0,0,1,.535.151c.025.008.048.019.073.028.141.056.273.116.4.175h0l-.249.029a1.912,1.912,0,0,1-.669-.044c-.142-.035-.28-.086-.423-.117a3.038,3.038,0,0,0-1.606.25,2.325,2.325,0,0,0,1.868.383,2.5,2.5,0,0,0,1.179-.456c.115.059.3.168.462.271,1.385.978,2.067,2.759,3.016,4.243l-.212-.019a4.881,4.881,0,0,0-2.795-1.878,4.828,4.828,0,0,0-1.422.121A3.609,3.609,0,0,0,365.5,173.5a10.651,10.651,0,0,0,2.543.426,6.268,6.268,0,0,0,1.262,1.478c1,.819,2.139.731,3.347.972a5.867,5.867,0,0,1,4.04,3.288c.03.064.053.127.078.19l-.292-.328a4.155,4.155,0,0,0-2.72-1.358c-1.1-.092-2.279.242-3.251-.271-.2-.107-.431-.253-.645-.169a3.747,3.747,0,0,0,2.391,1.545,5.628,5.628,0,0,0,1.585.3c.592,0,1.178-.162,1.77-.135a2.533,2.533,0,0,1,1.229.606h0c.019.046.045.1.045.1a10.914,10.914,0,0,1,.153,3.822,4.016,4.016,0,0,0,.111,1.015l-.117-.193-1.324-2.183a5.811,5.811,0,0,0-1.115-1.462A5.378,5.378,0,0,0,377,185.768c.2.131.412.251.608.389a7.992,7.992,0,0,0,.555.873l.161.219.263-.078c-.152-.213-.3-.426-.43-.64a3.11,3.11,0,0,1,.806-2.136,3.613,3.613,0,0,0,.93-2.116A3.155,3.155,0,0,1,378.842,182.9Z" transform="translate(-357.99 -165.566)" fill="#d3d1d3"/>
          </g>
        </g>
        <g id="Group_16" data-name="Group 16" transform="translate(45.524 87.538)">
          <g id="Group_13" data-name="Group 13" transform="translate(0 3.001)">
            <path id="Path_38" data-name="Path 38" d="M266.065,417.2l.43.7.818.04-.529.624.214.79-.757-.31-.685.448.061-.816-.638-.513.8-.194Z" transform="translate(-264.978 -415.985)" fill="#eaeaea"/>
            <path id="Path_39" data-name="Path 39" d="M279.794,413.537l.685,1.108,1.3.064-.842.994.341,1.257-1.206-.494-1.09.713.1-1.3-1.015-.817,1.266-.309Z" transform="translate(-273.718 -413.537)" fill="#eaeaea"/>
          </g>
          <g id="Group_14" data-name="Group 14" transform="translate(25.363 0.779)">
            <path id="Path_40" data-name="Path 40" d="M359.818,409.547l-.43-.7-.818-.04.529-.624-.214-.79.757.31.685-.448-.061.816.638.513-.8.194Z" transform="translate(-352.842 -407.123)" fill="#eaeaea"/>
            <path id="Path_41" data-name="Path 41" d="M343.312,410.492l-.685-1.108-1.3-.064.842-.994-.341-1.257,1.206.494,1.09-.713-.1,1.3,1.015.817-1.266.309Z" transform="translate(-341.326 -406.849)" fill="#eaeaea"/>
          </g>
          <g id="Group_15" data-name="Group 15" transform="translate(11.704)">
            <path id="Path_42" data-name="Path 42" d="M302.988,410.808a3.174,3.174,0,0,1,.121-.382c-.537-.557-1.083-1.059-1.53-1.445-.587-.508-1-.819-1-.819s.427.294,1.035.78c.451.358,1,.824,1.55,1.345a4.746,4.746,0,0,1,.887-1.323,12.205,12.205,0,0,0-3.841-1.064,6.812,6.812,0,0,1,.614,1.408c.511,1.567.962,3.982,2.8,4.189A3.167,3.167,0,0,1,302.988,410.808Z" transform="translate(-300.209 -406.772)" fill="#eaeaea"/>
            <path id="Path_43" data-name="Path 43" d="M312.331,411.648c-.008.031-.016.062-.023.093-.029.109-.052.215-.069.317s-.04.2-.049.29l-.031.258c0,.081-.009.155-.012.222a3.064,3.064,0,0,0,0,.313l0,.111.378-.034s0-.035-.006-.1a2.712,2.712,0,0,1-.012-.284c0-.061,0-.13,0-.2l.019-.241c0-.086.021-.178.035-.275s.03-.2.053-.3.044-.216.074-.329.058-.23.1-.349.073-.241.117-.365.088-.25.137-.377a14.961,14.961,0,0,1,.711-1.56,25.34,25.34,0,0,1,1.69-2.747c.506-.722.877-1.179.877-1.179s-.357.468-.841,1.206a25.374,25.374,0,0,0-1.605,2.8,15.038,15.038,0,0,0-.663,1.581c-.046.129-.089.255-.126.381s-.075.248-.106.368-.061.237-.085.351c-.023.095-.04.187-.055.276,3.894.4,3.478-3.313,3.568-5.633a7.741,7.741,0,0,1,.235-1.729S308.7,407.574,312.331,411.648Z" transform="translate(-307.67 -404.504)" fill="#eaeaea"/>
          </g>
        </g>
      </g>
    </g>
  </g>
</svg>
